<svg width="192" height="192" viewBox="0 0 192 192" fill="none" xmlns="http://www.w3.org/2000/svg">
  <!-- Background with Medical Gradient -->
  <rect width="192" height="192" rx="28" fill="url(#medicalGradient)"/>
  
  <!-- Background Pattern -->
  <circle cx="40" cy="40" r="20" fill="url(#accentGradient)" opacity="0.1"/>
  <circle cx="152" cy="152" r="25" fill="url(#accentGradient)" opacity="0.08"/>
  
  <!-- Microscope Base -->
  <rect x="70" y="140" width="52" height="12" rx="6" fill="url(#metalGradient)"/>
  <rect x="80" y="130" width="32" height="12" rx="6" fill="url(#metalGradient)"/>
  
  <!-- Microscope Stand -->
  <rect x="88" y="80" width="16" height="52" rx="8" fill="url(#metalGradient)"/>
  
  <!-- Microscope Lens System -->
  <circle cx="96" cy="75" r="18" fill="url(#lensGradient)" stroke="url(#metalGradient)" stroke-width="3"/>
  <circle cx="96" cy="75" r="12" fill="url(#glassGradient)"/>
  <circle cx="96" cy="75" r="6" fill="rgba(255,255,255,0.9)"/>
  
  <!-- Microscope Eyepiece -->
  <rect x="88" y="45" width="16" height="20" rx="8" fill="url(#metalGradient)"/>
  <ellipse cx="96" cy="50" rx="6" ry="4" fill="rgba(0,0,0,0.8)"/>
  
  <!-- Test Tubes Container -->
  <rect x="130" y="100" width="35" height="45" rx="8" fill="url(#containerGradient)" opacity="0.9"/>
  
  <!-- Test Tubes -->
  <rect x="135" y="105" width="6" height="35" rx="3" fill="url(#tubeGradient1)"/>
  <rect x="145" y="105" width="6" height="35" rx="3" fill="url(#tubeGradient2)"/>
  <rect x="155" y="105" width="6" height="35" rx="3" fill="url(#tubeGradient3)"/>
  
  <!-- Liquid in Test Tubes -->
  <rect x="136" y="125" width="4" height="14" rx="2" fill="#ff6b6b" opacity="0.8"/>
  <rect x="146" y="120" width="4" height="19" rx="2" fill="#4ecdc4" opacity="0.8"/>
  <rect x="156" y="115" width="4" height="24" rx="2" fill="#45b7d1" opacity="0.8"/>
  
  <!-- DNA Helix -->
  <path d="M40 80 Q50 70, 60 80 Q50 90, 40 100" stroke="rgba(255,255,255,0.6)" stroke-width="2" fill="none"/>
  <path d="M40 100 Q50 110, 60 100 Q50 90, 40 80" stroke="rgba(255,255,255,0.4)" stroke-width="2" fill="none"/>
  <circle cx="45" cy="85" r="1.5" fill="rgba(255,255,255,0.8)"/>
  <circle cx="55" cy="85" r="1.5" fill="rgba(255,255,255,0.8)"/>
  <circle cx="45" cy="95" r="1.5" fill="rgba(255,255,255,0.8)"/>
  <circle cx="55" cy="95" r="1.5" fill="rgba(255,255,255,0.8)"/>
  
  <!-- Digital Data Points -->
  <circle cx="150" cy="60" r="3" fill="rgba(255,255,255,0.9)"/>
  <circle cx="160" cy="70" r="2" fill="rgba(255,255,255,0.7)"/>
  <circle cx="170" cy="80" r="2.5" fill="rgba(255,255,255,0.8)"/>
  
  <!-- Connection Lines -->
  <line x1="150" y1="60" x2="160" y2="70" stroke="rgba(255,255,255,0.5)" stroke-width="1"/>
  <line x1="160" y1="70" x2="170" y2="80" stroke="rgba(255,255,255,0.5)" stroke-width="1"/>
  
  <!-- Medical Plus Symbol (subtle) -->
  <rect x="26" y="155" width="12" height="3" rx="1.5" fill="rgba(255,255,255,0.6)"/>
  <rect x="30.5" y="150.5" width="3" height="12" rx="1.5" fill="rgba(255,255,255,0.6)"/>
  
  <!-- Analysis Wave -->
  <path d="M20 30 Q30 25, 40 30 Q50 35, 60 30" stroke="rgba(255,255,255,0.4)" stroke-width="2" fill="none"/>
  
  <defs>
    <!-- Medical Blue to Teal Gradient -->
    <linearGradient id="medicalGradient" x1="0%" y1="0%" x2="100%" y2="100%">
      <stop offset="0%" style="stop-color:#2563eb;stop-opacity:1" />
      <stop offset="50%" style="stop-color:#0891b2;stop-opacity:1" />
      <stop offset="100%" style="stop-color:#0d9488;stop-opacity:1" />
    </linearGradient>
    
    <!-- Accent Gradient -->
    <linearGradient id="accentGradient" x1="0%" y1="0%" x2="100%" y2="100%">
      <stop offset="0%" style="stop-color:#60a5fa;stop-opacity:1" />
      <stop offset="100%" style="stop-color:#34d399;stop-opacity:1" />
    </linearGradient>
    
    <!-- Metal Gradient for Microscope -->
    <linearGradient id="metalGradient" x1="0%" y1="0%" x2="100%" y2="100%">
      <stop offset="0%" style="stop-color:#f8fafc;stop-opacity:1" />
      <stop offset="50%" style="stop-color:#e2e8f0;stop-opacity:1" />
      <stop offset="100%" style="stop-color:#cbd5e1;stop-opacity:1" />
    </linearGradient>
    
    <!-- Lens Gradient -->
    <linearGradient id="lensGradient" x1="0%" y1="0%" x2="100%" y2="100%">
      <stop offset="0%" style="stop-color:#1e293b;stop-opacity:1" />
      <stop offset="100%" style="stop-color:#475569;stop-opacity:1" />
    </linearGradient>
    
    <!-- Glass Gradient -->
    <radialGradient id="glassGradient" cx="30%" cy="30%">
      <stop offset="0%" style="stop-color:#ffffff;stop-opacity:0.8" />
      <stop offset="70%" style="stop-color:#e0f2fe;stop-opacity:0.4" />
      <stop offset="100%" style="stop-color:#0891b2;stop-opacity:0.6" />
    </radialGradient>
    
    <!-- Container Gradient -->
    <linearGradient id="containerGradient" x1="0%" y1="0%" x2="100%" y2="100%">
      <stop offset="0%" style="stop-color:#ffffff;stop-opacity:0.9" />
      <stop offset="100%" style="stop-color:#f1f5f9;stop-opacity:0.7" />
    </linearGradient>
    
    <!-- Test Tube Gradients -->
    <linearGradient id="tubeGradient1" x1="0%" y1="0%" x2="100%" y2="100%">
      <stop offset="0%" style="stop-color:#fef3c7;stop-opacity:1" />
      <stop offset="100%" style="stop-color:#f59e0b;stop-opacity:0.8" />
    </linearGradient>
    
    <linearGradient id="tubeGradient2" x1="0%" y1="0%" x2="100%" y2="100%">
      <stop offset="0%" style="stop-color:#ecfdf5;stop-opacity:1" />
      <stop offset="100%" style="stop-color:#10b981;stop-opacity:0.8" />
    </linearGradient>
    
    <linearGradient id="tubeGradient3" x1="0%" y1="0%" x2="100%" y2="100%">
      <stop offset="0%" style="stop-color:#eff6ff;stop-opacity:1" />
      <stop offset="100%" style="stop-color:#3b82f6;stop-opacity:0.8" />
    </linearGradient>
  </defs>
</svg>